<?xml version="1.0" standalone="no"?>
<!DOCTYPE svg PUBLIC "-//W3C//DTD SVG 20010904//EN"
 "http://www.w3.org/TR/2001/REC-SVG-20010904/DTD/svg10.dtd">
<svg version="1.0" xmlns="http://www.w3.org/2000/svg"
 width="1280.000000pt" height="640.000000pt" viewBox="0 0 1280.000000 640.000000"
 preserveAspectRatio="xMidYMid meet">
<g transform="translate(0.000000,640.000000) scale(0.100000,-0.100000)"
fill="#000000" stroke="none">
<path d="M8000 5810 c-91 -5 -230 -16 -310 -24 -217 -24 -481 -55 -515 -62
-112 -21 -506 -124 -634 -165 -183 -59 -206 -61 -252 -26 -54 41 -125 63 -315
101 -489 96 -694 120 -1019 120 -470 0 -596 -22 -1715 -295 -300 -73 -628
-171 -815 -242 -160 -62 -196 -79 -315 -152 -47 -29 -119 -71 -160 -95 -222
-128 -416 -334 -553 -590 -69 -128 -162 -413 -182 -555 -10 -73 -26 -97 -134
-204 -115 -113 -125 -134 -147 -315 -20 -172 -46 -224 -150 -302 -123 -91
-355 -328 -387 -394 -51 -104 -59 -218 -27 -346 25 -97 48 -133 167 -255 51
-53 93 -103 93 -112 0 -17 -49 -38 -192 -81 -97 -30 -138 -65 -138 -116 0 -69
78 -85 270 -55 120 18 173 19 168 3 -13 -39 -201 -88 -356 -94 -101 -3 -119
-7 -164 -31 -100 -55 -188 -185 -210 -311 -10 -61 -9 -82 11 -183 23 -119 39
-149 78 -149 37 0 139 45 185 83 115 92 659 388 720 390 l33 2 5 -105 c4 -91
9 -114 36 -171 90 -190 370 -371 679 -439 224 -50 741 -73 880 -40 22 5 135
17 250 25 116 8 311 27 435 41 356 40 722 64 985 64 367 1 1358 32 1530 49 55
5 323 10 595 10 322 0 602 6 800 17 255 13 343 14 540 5 318 -16 586 -37 755
-61 77 -11 226 -29 330 -40 105 -11 258 -29 340 -40 293 -37 1005 -84 1127
-74 92 8 286 53 403 94 202 71 441 208 557 318 83 78 117 132 154 237 31 87
33 90 62 89 37 -2 268 -112 330 -158 26 -19 79 -66 117 -106 39 -39 85 -80
103 -92 31 -19 34 -19 58 -3 13 9 32 33 41 53 75 174 191 361 317 510 85 101
169 164 252 188 30 8 56 20 60 25 12 20 -7 59 -37 74 -83 43 -559 46 -585 4
-3 -5 -7 -30 -9 -54 -3 -55 -46 -129 -88 -156 -29 -18 -45 -20 -149 -16 -97 3
-124 8 -165 28 -59 30 -74 70 -51 139 21 63 46 77 183 99 149 24 194 41 372
140 211 117 391 263 464 374 37 58 89 195 89 238 0 39 -43 148 -73 184 -16 20
-84 74 -150 122 -67 47 -128 93 -134 102 -25 31 -26 64 -4 135 53 175 54 375
4 531 -33 103 -146 332 -198 401 -113 151 -288 310 -490 444 -60 40 -146 99
-190 131 -77 55 -479 306 -675 421 -173 101 -389 201 -655 303 -82 31 -199 76
-260 100 -280 110 -623 191 -1100 260 -405 58 -586 70 -875 55z m-100 -130 c0
-15 -21 -22 -245 -80 -389 -100 -507 -143 -893 -324 -158 -74 -348 -162 -422
-196 -74 -34 -171 -81 -215 -105 -196 -106 -478 -240 -580 -275 -119 -42 -361
-90 -455 -90 -122 0 -182 46 -149 115 25 51 107 102 414 256 165 83 337 170
382 194 45 23 129 57 185 75 57 17 216 67 353 110 287 91 322 101 580 170 212
56 339 84 465 100 489 62 580 70 580 50z m-3115 -48 c0 -7 -44 -28 -105 -48
-203 -68 -471 -221 -752 -430 -147 -109 -842 -532 -919 -559 -85 -30 -165 -12
-194 45 -43 84 3 189 149 336 109 108 215 192 311 245 33 18 114 63 180 100
146 83 221 114 424 178 166 53 278 77 511 110 294 42 395 48 395 23z m4260
-63 c221 -22 379 -45 592 -89 148 -30 192 -45 176 -61 -12 -12 -58 -17 -348
-34 -212 -12 -267 -19 -465 -59 -279 -57 -303 -64 -574 -183 -294 -128 -451
-212 -530 -285 -68 -61 -91 -100 -102 -165 -13 -82 39 -140 146 -163 67 -14
165 0 419 60 91 22 221 51 288 65 68 14 173 41 235 60 173 52 724 196 808 211
122 22 320 27 565 15 436 -22 499 -34 788 -145 105 -40 215 -81 242 -90 51
-16 100 -47 345 -215 214 -148 341 -256 483 -411 56 -61 81 -101 134 -210 113
-236 135 -340 114 -535 -15 -135 -47 -199 -145 -292 -84 -81 -147 -114 -285
-151 -92 -24 -109 -25 -436 -29 -419 -6 -875 21 -1059 61 -165 37 -204 43
-411 71 -104 14 -246 37 -315 50 -409 79 -1058 137 -2125 190 -121 6 -794 -7
-1240 -25 -132 -5 -366 -23 -520 -40 -214 -23 -361 -32 -625 -40 -190 -5 -426
-14 -525 -20 -281 -17 -1308 -140 -1425 -170 -54 -14 -567 -78 -725 -90 -77
-6 -237 -20 -355 -32 -274 -26 -332 -25 -452 6 -119 31 -298 96 -395 143 -155
75 -273 241 -273 383 0 68 19 110 81 176 76 79 88 74 115 -46 11 -52 33 -132
47 -178 15 -46 27 -91 27 -101 0 -26 25 -44 50 -36 49 15 52 98 10 279 -32
139 -50 261 -50 342 0 71 84 394 125 481 18 39 57 109 86 155 28 46 58 93 65
104 27 44 182 199 256 255 104 80 358 242 443 284 198 98 858 301 911 281 22
-8 13 -18 -74 -80 -164 -116 -350 -305 -404 -411 -23 -45 -32 -78 -36 -131 -6
-89 9 -134 60 -190 30 -33 50 -45 89 -53 120 -26 206 -7 329 73 41 27 154 97
250 156 336 206 536 334 605 388 78 60 382 245 520 315 142 72 364 136 580
167 162 23 488 6 683 -35 289 -62 312 -69 312 -96 0 -14 -14 -22 -57 -34 -158
-43 -320 -111 -608 -256 -490 -246 -573 -302 -631 -424 -35 -75 -32 -101 20
-150 79 -77 198 -99 376 -71 123 20 288 58 380 88 36 12 290 135 565 274 767
388 1090 518 1590 643 105 26 415 60 640 71 219 10 377 5 640 -21z m900 -294
c173 -18 293 -38 399 -67 87 -23 318 -135 324 -157 4 -12 -35 -13 -274 -5
-615 20 -723 8 -1264 -146 -176 -50 -963 -248 -1042 -263 -96 -18 -180 29
-158 89 12 30 56 64 178 137 145 88 217 122 422 204 219 88 240 95 430 137
172 38 251 50 420 66 63 5 131 12 150 13 94 9 285 5 415 -8z m-1950 -2161
c267 -16 384 -29 399 -44 15 -15 -4 -40 -46 -62 -88 -46 -312 -62 -460 -34
-133 26 -308 103 -308 137 0 30 -15 30 415 3z m-564 -8 c108 -78 146 -99 230
-131 117 -45 233 -65 373 -65 211 1 341 32 465 113 86 56 82 56 260 33 118
-16 131 -20 131 -40 0 -20 -27 -40 -136 -99 -146 -79 -244 -120 -385 -160
-201 -57 -281 -71 -419 -70 -106 1 -143 6 -242 32 -124 32 -243 75 -368 133
-120 56 -337 222 -328 251 6 16 75 24 244 25 135 2 143 1 175 -22z m-875 -7
c4 -7 -9 -25 -29 -43 -45 -39 -54 -73 -32 -120 21 -45 59 -72 114 -85 24 -5
45 -12 49 -15 18 -19 -63 -43 -253 -75 -214 -36 -317 -42 -521 -31 -414 22
-554 39 -554 70 0 31 199 208 265 236 52 21 62 8 41 -52 -34 -99 -13 -151 76
-188 73 -31 217 16 244 80 8 19 18 34 23 34 4 0 21 -18 36 -40 43 -62 85 -83
153 -78 111 8 212 83 212 157 0 76 -71 119 -115 71 -10 -11 -27 -20 -38 -20
-11 0 -38 -18 -59 -41 -47 -49 -68 -46 -68 10 0 33 -19 71 -35 71 -17 0 -38
-17 -51 -41 -19 -38 -34 -36 -61 7 -38 58 -31 65 72 76 39 4 93 12 120 17 78
13 402 13 411 0z m101 -5 c7 -20 -22 -45 -42 -38 -16 7 -27 32 -19 45 9 15 54
10 61 -7z m253 -49 l54 -54 -38 -35 c-41 -40 -158 -99 -184 -94 -36 7 -24 36
22 53 24 9 55 28 67 41 24 26 24 31 -8 127 -11 36 33 16 87 -38z m-5885 15 c9
-17 20 -67 26 -113 25 -210 99 -343 225 -409 141 -74 260 -94 374 -63 88 23
195 82 259 141 84 77 128 94 274 104 266 18 454 23 461 11 15 -23 -55 -194
-115 -282 -48 -72 -84 -101 -178 -148 -165 -83 -320 -116 -546 -114 -250 1
-339 23 -501 124 -159 100 -256 217 -310 374 -23 67 -28 102 -32 217 -2 75 -2
148 2 162 9 36 41 34 61 -4z m4828 -14 c18 -18 32 -115 18 -129 -6 -6 -15 2
-25 22 -19 35 -41 39 -87 16 -24 -13 -30 -13 -34 -2 -8 19 21 84 42 96 26 15
69 13 86 -3z m-529 -22 c41 -16 -6 -64 -164 -169 -248 -163 -396 -212 -720
-234 -237 -17 -396 16 -635 128 -134 64 -185 97 -185 121 0 40 44 35 143 -14
158 -79 326 -94 513 -46 91 24 132 44 225 115 119 91 101 87 388 95 381 10
418 11 435 4z m7090 -16 c8 -13 28 -68 46 -123 27 -84 31 -112 28 -175 -12
-268 -284 -395 -717 -335 -141 20 -210 43 -351 118 -214 113 -330 197 -317
230 8 20 115 30 287 25 l135 -3 90 -59 c158 -104 180 -111 330 -111 119 0 135
2 186 26 110 52 165 143 176 289 6 68 9 78 39 108 38 38 49 40 68 10z m-5789
-28 c0 -13 -5 -25 -12 -27 -13 -5 -27 32 -18 47 11 18 30 5 30 -20z m2666
-129 c83 -91 144 -148 191 -178 88 -57 270 -144 370 -177 104 -35 318 -83 403
-91 117 -11 407 29 623 86 122 33 142 30 142 -16 0 -28 -28 -39 -195 -84 -283
-76 -445 -92 -660 -66 -237 28 -439 90 -604 186 -202 117 -306 210 -403 358
-49 74 -58 107 -36 129 17 17 29 7 169 -147z m-4881 119 c0 -21 -74 -64 -154
-87 -76 -23 -326 -17 -367 7 -43 27 67 55 316 79 188 19 205 19 205 1z m5090
-65 c4 -38 12 -82 20 -98 7 -15 11 -30 7 -33 -14 -14 -55 14 -134 90 -109 106
-107 118 16 114 l86 -3 5 -70z m215 25 c45 -17 24 -34 -43 -36 -42 -1 -62 3
-62 10 0 33 52 46 105 26z m-685 -52 c105 -148 160 -218 200 -257 88 -86 353
-241 496 -289 172 -59 425 -97 639 -96 182 1 267 12 468 63 184 46 233 75 307
180 15 21 16 21 185 -64 206 -104 334 -140 543 -156 183 -13 320 12 479 88
104 49 190 168 214 296 12 70 7 100 -34 190 -25 56 -28 70 -17 77 19 12 45 -4
114 -69 87 -83 111 -130 111 -216 0 -103 -39 -178 -147 -281 -178 -171 -406
-297 -662 -366 -110 -30 -346 -30 -771 0 -176 12 -419 29 -540 37 -263 18
-513 53 -725 101 -472 108 -932 164 -1337 164 -180 0 -611 29 -973 64 -182 18
-1035 22 -1800 8 l-535 -10 -220 -41 c-320 -60 -547 -98 -655 -111 -52 -6
-145 -25 -207 -41 -61 -16 -216 -48 -345 -70 -128 -22 -269 -46 -313 -54 -182
-33 -519 -66 -716 -72 -122 -4 -330 0 -510 8 -167 8 -414 13 -549 13 -217 -2
-270 -5 -465 -33 -379 -55 -404 -54 -517 21 -196 130 -325 343 -298 489 24
128 64 186 235 340 126 115 145 120 157 49 50 -280 158 -458 363 -597 174
-117 313 -156 605 -169 190 -9 333 19 554 108 l99 40 26 -21 c39 -32 138 -78
206 -96 80 -21 325 -35 420 -24 157 17 330 81 462 171 95 63 309 236 346 278
19 21 34 29 45 25 9 -4 55 -16 102 -28 175 -45 577 -16 826 59 99 29 138 30
227 4 160 -45 521 -103 763 -121 172 -13 273 -8 509 27 259 37 431 93 545 175
78 56 208 119 246 119 18 0 70 -18 116 -40 107 -52 301 -115 413 -135 102 -17
270 -20 382 -4 217 29 649 172 828 274 33 19 63 34 67 35 4 0 21 -19 38 -42z
m3217 11 c18 -37 -7 -123 -48 -165 -64 -66 -225 -107 -330 -85 -53 12 -157 63
-171 85 -15 23 23 39 128 52 143 18 223 43 314 98 41 25 80 44 85 43 6 -2 15
-15 22 -28z m-11003 -9 c86 -49 324 -136 494 -180 63 -16 55 -44 -23 -84 -57
-29 -66 -31 -175 -31 -111 0 -118 1 -183 33 -51 25 -77 46 -106 85 -61 80
-103 207 -70 207 6 0 35 -13 63 -30z m8799 0 c332 -52 364 -58 391 -75 37 -25
44 -56 16 -75 -13 -8 -35 -27 -50 -42 -40 -40 -52 -36 -50 15 4 65 3 67 -35
67 -27 0 -39 -7 -57 -30 -27 -38 -37 -38 -71 1 -27 31 -27 31 -104 24 -43 -3
-95 -8 -115 -11 -34 -5 -37 -4 -40 23 -3 24 -8 28 -41 31 -32 3 -39 8 -52 39
-19 45 -19 63 0 63 9 0 102 -13 208 -30z m-3015 -37 c-4 -23 -195 -133 -297
-171 -142 -55 -403 -100 -626 -109 -247 -10 -625 35 -897 108 -28 7 -38 15
-38 29 0 26 11 26 178 -5 453 -84 660 -91 1057 -34 159 23 351 82 500 154 100
48 128 54 123 28z m-3675 -17 c3 -8 -5 -30 -19 -48 -13 -18 -32 -50 -42 -70
-9 -21 -20 -38 -24 -38 -4 0 -17 18 -28 40 -11 22 -24 40 -29 40 -13 0 -50
-49 -66 -86 -8 -19 -27 -39 -51 -50 -28 -14 -40 -28 -46 -51 -10 -38 -42 -46
-51 -13 -6 22 -44 40 -86 40 -33 0 -48 14 -53 50 -2 20 -10 26 -37 30 -42 6
-48 19 -21 53 29 36 98 56 305 87 217 33 241 34 248 16z m209 -63 c31 -21 60
-44 63 -51 10 -26 -159 -169 -260 -220 -85 -43 -231 -90 -292 -94 -55 -3 -71
8 -38 26 60 33 85 59 96 99 16 54 24 63 44 47 44 -37 156 -5 235 66 36 33 42
45 75 152 6 18 13 16 77 -25z m7230 2 c30 -4 56 -15 76 -33 16 -15 42 -35 56
-45 35 -24 58 -60 51 -80 -8 -20 -83 -51 -197 -82 -156 -42 -181 -32 -128 51
32 50 35 78 14 159 -5 20 -2 27 17 33 12 5 32 7 43 6 12 -2 42 -6 68 -9z
m-1060 -36 c66 -34 92 -89 41 -89 -34 1 -195 80 -201 99 -4 12 8 13 66 8 39
-3 81 -11 94 -18z m821 -64 c7 -16 -8 -29 -23 -20 -15 9 -12 35 4 35 8 0 16
-7 19 -15z m-6749 -51 c22 -22 21 -25 -24 -82 -97 -122 -357 -272 -566 -328
-75 -20 -132 -27 -239 -31 -152 -6 -215 5 -350 61 -75 30 -88 48 -58 78 21 21
24 21 95 8 89 -16 349 -17 468 -1 205 28 301 70 495 216 69 52 135 95 145 95
10 0 26 -7 34 -16z m6439 -23 c23 -22 56 -51 72 -64 21 -18 27 -29 19 -36 -15
-16 -359 70 -359 89 0 12 17 15 83 16 56 1 89 7 105 17 31 22 32 22 80 -22z
m274 -75 c3 -3 3 -12 0 -21 -5 -11 -22 -15 -76 -15 -68 0 -94 11 -73 32 23 23
127 26 149 4z m-7744 -46 c29 -25 47 -31 117 -39 82 -9 108 -20 96 -40 -9 -14
-235 -15 -273 0 -49 19 -56 47 -18 84 31 32 37 31 78 -5z m4104 -223 c11 -11
7 -22 -23 -65 -27 -38 -38 -66 -42 -102 -6 -60 11 -89 63 -115 110 -52 436
-81 574 -51 170 36 232 137 161 262 -25 44 -27 54 -15 64 8 7 27 9 42 6 49
-10 376 -34 818 -61 794 -47 865 -54 1238 -135 128 -27 289 -59 358 -70 331
-54 303 -45 377 -112 73 -66 128 -98 217 -124 72 -20 207 -23 287 -5 48 10 66
21 111 67 l55 54 230 0 c243 0 290 -4 299 -27 3 -8 -6 -27 -21 -42 -61 -64
-18 -189 84 -241 95 -49 326 -54 416 -9 56 28 110 98 119 157 14 84 10 82 144
82 76 0 122 -4 127 -11 3 -6 -30 -47 -75 -92 -79 -79 -200 -245 -306 -420 -33
-54 -57 -83 -71 -85 -13 -2 -45 19 -95 63 -60 54 -101 79 -214 132 -255 118
-495 199 -682 227 -275 43 -934 55 -1273 24 -102 -10 -268 -22 -370 -28 -102
-6 -224 -15 -271 -21 -103 -12 -235 -17 -244 -8 -3 4 3 22 15 40 29 48 60 153
60 205 0 63 -21 106 -85 173 -47 49 -63 60 -101 66 -77 11 -134 -3 -176 -44
-44 -45 -56 -86 -73 -252 -7 -70 -15 -131 -19 -137 -4 -6 -50 -26 -104 -43
-79 -26 -118 -33 -212 -37 -103 -4 -140 0 -346 37 -127 22 -250 48 -273 56
-24 8 -109 28 -189 44 -375 74 -504 69 -846 -33 -92 -27 -166 -34 -166 -15 0
6 23 36 50 67 89 100 114 179 86 273 -20 70 -69 127 -144 167 -82 44 -163 52
-219 24 -96 -50 -145 -123 -183 -274 -52 -205 -77 -248 -145 -248 -18 0 -90 9
-161 19 -295 45 -526 52 -734 22 -69 -10 -132 -15 -140 -10 -9 4 -44 45 -78
92 -92 123 -149 157 -269 157 -114 0 -214 -68 -247 -167 -9 -27 -30 -63 -46
-78 l-30 -29 -188 3 c-236 3 -354 12 -359 28 -3 7 13 17 39 23 94 26 154 67
343 234 127 112 159 123 450 167 77 11 199 34 271 49 73 16 230 46 350 66 120
19 223 38 229 42 23 14 375 20 974 16 508 -3 637 -6 648 -17z m463 -22 c25
-13 59 -29 77 -35 32 -12 123 -100 123 -119 0 -6 -18 -20 -41 -31 -34 -18 -66
-22 -182 -27 -231 -9 -387 20 -395 74 -7 47 127 149 218 166 51 10 155 -5 200
-28z m-1025 -183 c66 -32 105 -86 105 -147 0 -48 -9 -64 -96 -163 -60 -68 -74
-91 -74 -117 0 -75 85 -123 198 -112 31 3 122 27 202 54 l145 48 195 -1 c172
-1 210 -4 320 -28 69 -15 150 -36 180 -47 126 -44 541 -108 708 -109 80 0 107
5 199 35 221 74 240 97 253 290 9 131 24 178 64 196 31 14 76 -9 113 -58 23
-30 28 -46 27 -88 -1 -49 -15 -83 -65 -162 -23 -37 -28 -107 -11 -140 7 -11
32 -31 57 -43 51 -25 102 -24 240 3 82 16 225 29 540 47 99 6 261 16 360 22
305 18 887 -5 1074 -42 167 -34 281 -110 281 -188 0 -84 -98 -206 -244 -304
-147 -98 -376 -204 -518 -239 -217 -54 -320 -59 -728 -34 -256 16 -338 23
-610 56 -467 56 -587 71 -715 89 -154 22 -315 34 -689 51 -251 12 -395 10
-761 -10 -110 -6 -436 -13 -725 -14 -485 -3 -669 -9 -1277 -38 -121 -5 -441
-14 -710 -19 -511 -10 -676 -20 -1113 -69 -146 -17 -350 -37 -455 -46 -104 -8
-239 -20 -298 -26 -125 -12 -471 2 -622 26 -356 56 -676 273 -726 493 -20 87
31 154 148 192 37 13 105 36 151 52 81 29 82 30 82 63 0 19 -5 37 -11 40 -5 4
-15 18 -20 32 -29 77 125 136 254 99 67 -19 108 -62 132 -138 30 -94 57 -102
251 -73 285 41 1187 72 1755 59 l286 -7 41 37 c27 24 46 54 57 86 36 109 110
169 209 170 45 0 53 -4 90 -43 23 -23 59 -73 81 -110 40 -69 104 -137 128
-137 8 0 36 7 63 15 27 8 95 22 152 30 155 23 505 2 738 -46 58 -11 168 2 215
26 45 24 78 93 114 242 19 76 42 153 52 171 16 32 73 84 103 94 20 7 69 -2
105 -20z m-2484 -91 c-17 -31 -111 -101 -177 -133 -69 -32 -142 -38 -210 -18
-51 15 -139 79 -127 91 5 5 77 21 159 35 82 14 165 30 184 34 19 4 68 8 108 9
68 1 72 0 63 -18z m6953 -62 c141 -21 144 -59 5 -59 -117 0 -182 30 -131 59
22 13 36 13 126 0z m-8364 -29 c187 -7 331 -7 452 0 177 10 252 4 301 -21 12
-7 65 -40 117 -74 52 -34 112 -68 133 -76 42 -15 62 -33 53 -47 -3 -6 -104
-10 -233 -10 -398 -1 -899 -25 -1118 -54 -119 -15 -138 -10 -159 47 -21 54
-102 130 -154 145 -153 44 -310 26 -385 -44 -30 -28 -57 -83 -57 -115 0 -30
-31 -45 -179 -86 -278 -76 -368 -118 -768 -353 -299 -176 -283 -169 -300 -146
-16 22 -17 152 -2 224 20 92 106 149 294 194 276 67 325 80 403 108 97 35 118
58 107 114 -3 21 -20 50 -36 66 -16 16 -29 33 -29 37 0 7 147 33 520 91 110
17 163 19 445 15 176 -2 444 -9 595 -15z"/>
<path d="M9504 1989 c-41 -12 -104 -81 -104 -114 0 -72 58 -135 147 -161 50
-15 59 -15 82 -2 14 9 39 18 54 22 34 8 57 55 57 117 0 37 -6 48 -43 83 -60
58 -123 76 -193 55z m114 -115 c25 -16 28 -34 10 -52 -18 -18 -62 -14 -92 9
-65 51 9 90 82 43z"/>
</g>
</svg>
